<svg width="16" height="16" viewBox="0 0 16 16" fill="none" xmlns="http://www.w3.org/2000/svg">
<path d="M7.99645 10.1792C7.90756 10.1792 7.82423 10.1653 7.74645 10.1375C7.66867 10.1097 7.59645 10.0625 7.52979 9.99583L4.46312 6.92917C4.3409 6.80694 4.27979 6.65139 4.27979 6.4625C4.27979 6.27361 4.3409 6.11806 4.46312 5.99583C4.58534 5.87361 4.7409 5.8125 4.92979 5.8125C5.11867 5.8125 5.27423 5.87361 5.39645 5.99583L7.99645 8.59583L10.5965 5.99583C10.7187 5.87361 10.8742 5.8125 11.0631 5.8125C11.252 5.8125 11.4076 5.87361 11.5298 5.99583C11.652 6.11806 11.7131 6.27361 11.7131 6.4625C11.7131 6.65139 11.652 6.80694 11.5298 6.92917L8.46312 9.99583C8.39645 10.0625 8.32423 10.1097 8.24645 10.1375C8.16867 10.1653 8.08534 10.1792 7.99645 10.1792Z" fill="#22222F"/>
</svg>
