<svg width="18" height="16" viewBox="0 0 18 16" fill="none" xmlns="http://www.w3.org/2000/svg">
<g clip-path="url(#clip0_6886_1830)">
<path d="M13.8021 8.47068C11.7599 8.47068 10.1047 10.1559 10.1047 12.2348C10.1047 14.3139 11.7599 15.9995 13.8021 15.9995C15.8439 15.9995 17.4991 14.3139 17.4991 12.2348C17.4991 10.1559 15.8439 8.47068 13.8021 8.47068ZM4.19629 8.47086C2.15446 8.47104 0.499084 10.1559 0.499084 12.235C0.499084 14.3139 2.15446 15.9993 4.19629 15.9993C6.23829 15.9993 7.89368 14.3139 7.89368 12.235C7.89368 10.1559 6.23829 8.47086 4.19611 8.47086H4.19629ZM12.6963 3.76528C12.6963 5.84417 11.0411 7.52996 8.99927 7.52996C6.9571 7.52996 5.30189 5.84417 5.30189 3.76528C5.30189 1.6864 6.9571 0.000976562 8.99926 0.000976562C11.0411 0.000976562 12.6961 1.6864 12.6961 3.76528H12.6963Z" fill="url(#paint0_radial_6886_1830)"/>
</g>
<defs>
<radialGradient id="paint0_radial_6886_1830" cx="0" cy="0" r="1" gradientUnits="userSpaceOnUse" gradientTransform="translate(9.00139 8.75447) scale(11.271 10.607)">
<stop stop-color="#FFB900"/>
<stop offset="0.6" stop-color="#F95D8F"/>
<stop offset="0.999" stop-color="#F95353"/>
</radialGradient>
<clipPath id="clip0_6886_1830">
<rect width="17" height="16" fill="white" transform="translate(0.5)"/>
</clipPath>
</defs>
</svg>
