<svg width="20" height="20" viewBox="0 0 20 20" fill="none" xmlns="http://www.w3.org/2000/svg">
<path d="M9.99999 16.0413C13.3367 16.0413 16.0417 13.3364 16.0417 9.99967C16.0417 6.66295 13.3367 3.95801 9.99999 3.95801C6.66327 3.95801 3.95833 6.66295 3.95833 9.99967C3.95833 13.3364 6.66327 16.0413 9.99999 16.0413Z" stroke="#D5D6E2" stroke-width="1.25" stroke-linecap="round" stroke-linejoin="round"/>
<path d="M10 12.7087C11.4958 12.7087 12.7083 11.4961 12.7083 10.0003C12.7083 8.50455 11.4958 7.29199 10 7.29199C8.50423 7.29199 7.29167 8.50455 7.29167 10.0003C7.29167 11.4961 8.50423 12.7087 10 12.7087Z" stroke="#D5D6E2" stroke-width="1.25" stroke-linecap="round" stroke-linejoin="round"/>
<path d="M5.83333 14.1663L7.91666 12.083" stroke="#D5D6E2" stroke-width="1.25" stroke-linecap="round" stroke-linejoin="round"/>
<path d="M14.1667 14.1663L12.0833 12.083" stroke="#D5D6E2" stroke-width="1.25" stroke-linecap="round" stroke-linejoin="round"/>
<path d="M7.91666 7.91634L5.83333 5.83301" stroke="#D5D6E2" stroke-width="1.25" stroke-linecap="round" stroke-linejoin="round"/>
<path d="M12.0833 7.91634L14.1667 5.83301" stroke="#D5D6E2" stroke-width="1.25" stroke-linecap="round" stroke-linejoin="round"/>
</svg>
