<svg width="16" height="16" viewBox="0 0 16 16" fill="none" xmlns="http://www.w3.org/2000/svg">
<path d="M8 15C11.866 15 15 11.866 15 8C15 4.13401 11.866 1 8 1C4.13401 1 1 4.13401 1 8C1 11.866 4.13401 15 8 15Z" stroke="#22222F" stroke-width="1.5" stroke-linecap="round" stroke-linejoin="round"/>
<path d="M7.99926 11.1382C9.73229 11.1382 11.1372 9.73327 11.1372 8.00024C11.1372 6.2672 9.73229 4.8623 7.99926 4.8623C6.26623 4.8623 4.86133 6.2672 4.86133 8.00024C4.86133 9.73327 6.26623 11.1382 7.99926 11.1382Z" stroke="#22222F" stroke-width="1.5" stroke-linecap="round" stroke-linejoin="round"/>
<path d="M3.17188 12.8279L5.58567 10.4141" stroke="#22222F" stroke-width="1.5" stroke-linecap="round" stroke-linejoin="round"/>
<path d="M12.8279 12.8279L10.4141 10.4141" stroke="#22222F" stroke-width="1.5" stroke-linecap="round" stroke-linejoin="round"/>
<path d="M5.58567 5.58664L3.17188 3.17285" stroke="#22222F" stroke-width="1.5" stroke-linecap="round" stroke-linejoin="round"/>
<path d="M10.4141 5.58664L12.8279 3.17285" stroke="#22222F" stroke-width="1.5" stroke-linecap="round" stroke-linejoin="round"/>
</svg>
