<svg width="16" height="16" viewBox="0 0 16 16" fill="none" xmlns="http://www.w3.org/2000/svg">
<path d="M5.34473 3.17237C5.34473 4.37213 4.37213 5.34473 3.17237 5.34473C1.9726 5.34473 1 4.37213 1 3.17237C1 1.9726 1.9726 1 3.17237 1C4.37213 1 5.34473 1.9726 5.34473 3.17237Z" stroke="#22222F" stroke-width="1.5" stroke-linecap="round" stroke-linejoin="round"/>
<path d="M14.999 12.8273C14.999 14.027 14.0264 14.9996 12.8267 14.9996C11.6269 14.9996 10.6543 14.027 10.6543 12.8273C10.6543 11.6275 11.6269 10.6549 12.8267 10.6549C14.0264 10.6549 14.999 11.6275 14.999 12.8273Z" stroke="#22222F" stroke-width="1.5" stroke-linecap="round" stroke-linejoin="round"/>
<path d="M2.93164 5.58606V8.97736C2.93164 9.75575 3.16681 10.5159 3.6063 11.1582L6.0695 14.7583" stroke="#22222F" stroke-width="1.5" stroke-linecap="round" stroke-linejoin="round"/>
<path d="M13.0695 10.1722V6.52275C13.0695 5.91384 12.8777 5.32045 12.5211 4.82685L9.93164 1.24139" stroke="#22222F" stroke-width="1.5" stroke-linecap="round" stroke-linejoin="round"/>
<path d="M6.31088 11.6205V14.9997H2.93164" stroke="#22222F" stroke-width="1.5" stroke-linecap="round" stroke-linejoin="round"/>
<path d="M9.68945 4.37924V1H13.0687" stroke="#22222F" stroke-width="1.5" stroke-linecap="round" stroke-linejoin="round"/>
</svg>
