<svg width="12" height="12" viewBox="0 0 12 12" fill="none" xmlns="http://www.w3.org/2000/svg">
<path d="M11.8333 6.13264C11.8333 5.719 11.7955 5.32127 11.7251 4.93945H6.11905V7.19855H9.32251C9.18182 7.92506 8.75974 8.54022 8.12663 8.95385V10.4228H10.0584C11.184 9.40461 11.8333 7.90915 11.8333 6.13264Z" fill="#4285F4"/>
<path d="M6.11827 11.833C7.72541 11.833 9.07282 11.3133 10.0577 10.4224L8.12585 8.95343C7.59554 9.30344 6.91913 9.51556 6.11827 9.51556C4.57065 9.51556 3.25571 8.49207 2.78493 7.11328H0.804413V8.61934C1.78385 10.5231 3.79143 11.833 6.11827 11.833Z" fill="#34A853"/>
<path d="M2.78571 7.10847C2.66666 6.75847 2.59631 6.38726 2.59631 6.00014C2.59631 5.61302 2.66666 5.2418 2.78571 4.8918V3.38574H0.805185C0.399341 4.17059 0.166656 5.0562 0.166656 6.00014C0.166656 6.94408 0.399341 7.82969 0.805185 8.61454L2.34739 7.43726L2.78571 7.10847Z" fill="#FBBC05"/>
<path d="M6.11827 2.48972C6.99489 2.48972 7.77411 2.78669 8.39641 3.35942L10.101 1.68896C9.06741 0.745023 7.72541 0.166992 6.11827 0.166992C3.79143 0.166992 1.78385 1.47684 0.804413 3.38594L2.78493 4.892C3.25571 3.51321 4.57065 2.48972 6.11827 2.48972Z" fill="#EA4335"/>
</svg>
