<svg width="16" height="15" viewBox="0 0 16 15" fill="none" xmlns="http://www.w3.org/2000/svg">
<g clip-path="url(#clip0_6886_2323)">
<path d="M1.20962 12.7522L1.91523 13.971C2.06186 14.2276 2.27262 14.4292 2.52005 14.5758L5.04009 10.2139H0C0 10.4979 0.0733104 10.782 0.219931 11.0386L1.20962 12.7522Z" fill="#0066DA"/>
<path d="M8 5.0817L5.47995 0.719727C5.23253 0.866347 5.02176 1.06795 4.87514 1.32454L0.219931 9.38868C0.076007 9.63974 0.000191627 9.92404 0 10.2134H5.04009L8 5.0817Z" fill="#00AC47"/>
<path d="M13.4803 14.5758C13.7277 14.4292 13.9385 14.2276 14.0851 13.971L14.3784 13.467L15.7804 11.0386C15.927 10.782 16.0004 10.4979 16.0004 10.2139H10.9599L12.0324 12.3215L13.4803 14.5758Z" fill="#EA4335"/>
<path d="M7.99813 5.0819L10.5182 0.719931C10.2708 0.57331 9.98668 0.5 9.69344 0.5H6.30283C6.00959 0.5 5.72551 0.582474 5.47809 0.719931L7.99813 5.0819Z" fill="#00832D"/>
<path d="M10.9584 10.2139H5.03854L2.51849 14.5758C2.76592 14.7225 3.04999 14.7958 3.34324 14.7958H12.6537C12.9469 14.7958 13.231 14.7133 13.4784 14.5758L10.9584 10.2139Z" fill="#2684FC"/>
<path d="M13.4528 5.35661L11.1252 1.32454C10.9785 1.06795 10.7678 0.866347 10.5204 0.719727L8.00031 5.0817L10.9602 10.2134H15.9911C15.9911 9.92935 15.9178 9.64527 15.7712 9.38868L13.4528 5.35661Z" fill="#FFBA00"/>
</g>
<defs>
<clipPath id="clip0_6886_2323">
<rect width="16" height="14.2955" fill="white" transform="translate(0 0.5)"/>
</clipPath>
</defs>
</svg>
