<svg width="16" height="16" viewBox="0 0 16 16" fill="none" xmlns="http://www.w3.org/2000/svg">
<g clip-path="url(#clip0_6857_2939)">
<path d="M12.2108 3.7892L8.42137 3.36816L3.78977 3.7892L3.36865 7.99976L3.78969 12.2103L8.00025 12.7366L12.2108 12.2103L12.6319 7.89456L12.2108 3.7892Z" fill="white"/>
<path d="M5.51708 10.3219C5.20236 10.1092 4.98444 9.79875 4.86548 9.38819L5.59604 9.08715C5.66236 9.33979 5.77812 9.53555 5.9434 9.67451C6.10764 9.81347 6.30764 9.88187 6.54132 9.88187C6.78028 9.88187 6.98556 9.80923 7.15708 9.66395C7.3286 9.51867 7.415 9.33339 7.415 9.10923C7.415 8.87979 7.32444 8.69235 7.1434 8.54715C6.96236 8.40195 6.735 8.32923 6.4634 8.32923H6.04132V7.60611H6.4202C6.65388 7.60611 6.85076 7.54299 7.01076 7.41667C7.17076 7.29035 7.25076 7.11771 7.25076 6.89771C7.25076 6.70195 7.17916 6.54611 7.03604 6.42931C6.89292 6.31251 6.7118 6.25354 6.4918 6.25354C6.27708 6.25354 6.10652 6.31043 5.9802 6.42515C5.85388 6.53987 5.76228 6.68091 5.70444 6.84723L4.98132 6.54619C5.07708 6.27459 5.25292 6.03459 5.51076 5.82723C5.76868 5.61987 6.09812 5.51562 6.49812 5.51562C6.79388 5.51562 7.0602 5.57251 7.29604 5.68723C7.5318 5.80195 7.71708 5.96091 7.85076 6.16299C7.98444 6.36611 8.05076 6.59355 8.05076 6.84611C8.05076 7.10403 7.98868 7.32187 7.86444 7.50083C7.7402 7.67979 7.58756 7.81659 7.40652 7.91243V7.95555C7.64548 8.05555 7.8402 8.20819 7.99388 8.41347C8.14652 8.61875 8.22332 8.86403 8.22332 9.15035C8.22332 9.43667 8.15068 9.69243 8.0054 9.91667C7.86012 10.1409 7.65908 10.3177 7.40436 10.4461C7.1486 10.5745 6.86124 10.6398 6.54228 10.6398C6.17284 10.6408 5.8318 10.5345 5.51708 10.3219Z" fill="#1A73E8"/>
<path d="M9.99999 6.69718L9.20207 7.27718L8.80103 6.66878L10.24 5.63086H10.7916V10.5266H9.99999V6.69718Z" fill="#1A73E8"/>
<path d="M12.2107 15.9997L16.0002 12.2102L14.1055 11.3682L12.2107 12.2102L11.3687 14.105L12.2107 15.9997Z" fill="#EA4335"/>
<path d="M2.94751 14.1057L3.78959 16.0004H12.2106V12.2109H3.78959L2.94751 14.1057Z" fill="#34A853"/>
<path d="M1.26312 0C0.56528 0 0 0.56528 0 1.26312V12.2105L1.89472 13.0526L3.78944 12.2105V3.78944H12.2105L13.0526 1.89472L12.2106 0H1.26312Z" fill="#4285F4"/>
<path d="M0 12.2109V14.7373C0 15.4352 0.56528 16.0004 1.26312 16.0004H3.78944V12.2109H0Z" fill="#188038"/>
<path d="M12.2107 3.78935V12.2104H16.0001V3.78935L14.1054 2.94727L12.2107 3.78935Z" fill="#FBBC04"/>
<path d="M16.0001 3.78944V1.26312C16.0001 0.5652 15.4349 0 14.737 0H12.2107V3.78944H16.0001Z" fill="#1967D2"/>
</g>
<defs>
<clipPath id="clip0_6857_2939">
<rect width="16" height="16" fill="white"/>
</clipPath>
</defs>
</svg>
