<svg width="16" height="12" viewBox="0 0 16 12" fill="none" xmlns="http://www.w3.org/2000/svg">
<g clip-path="url(#clip0_6857_2685)">
<path d="M1.09164 11.9999H3.6371V5.81809L0.000732422 3.09082V10.909C0.000732422 11.5126 0.489823 11.9999 1.09164 11.9999Z" fill="#4285F4"/>
<path d="M12.3643 11.9999H14.9097C15.5133 11.9999 16.0006 11.5108 16.0006 10.909V3.09082L12.3643 5.81809" fill="#34A853"/>
<path d="M12.3643 1.09107V5.81835L16.0006 3.09107V1.63653C16.0006 0.287438 14.4606 -0.481653 13.3824 0.327438" fill="#FBBC04"/>
<path d="M3.63672 5.81809V1.09082L8.00035 4.36355L12.364 1.09082V5.81809L8.00035 9.09082" fill="#EA4335"/>
<path d="M0.000732422 1.63653V3.09107L3.6371 5.81835V1.09107L2.61891 0.327438C1.53891 -0.481653 0.000732422 0.287438 0.000732422 1.63653Z" fill="#C5221F"/>
</g>
<defs>
<clipPath id="clip0_6857_2685">
<rect width="16" height="12" fill="white"/>
</clipPath>
</defs>
</svg>
