<svg width="24" height="24" viewBox="0 0 24 24" fill="none" xmlns="http://www.w3.org/2000/svg">
<path d="M3 0.375H21C22.4497 0.375 23.625 1.55025 23.625 3V21C23.625 22.4497 22.4497 23.625 21 23.625H3C1.55025 23.625 0.375 22.4497 0.375 21V3C0.375 1.55025 1.55025 0.375 3 0.375Z" fill="#FCFCFD"/>
<path d="M3 0.375H21C22.4497 0.375 23.625 1.55025 23.625 3V21C23.625 22.4497 22.4497 23.625 21 23.625H3C1.55025 23.625 0.375 22.4497 0.375 21V3C0.375 1.55025 1.55025 0.375 3 0.375Z" stroke="#D5D6E2" stroke-width="0.75"/>
<path d="M10.8736 13.2313H7L13.2945 5V10.8104H17.1681L10.8736 19.0417V13.2313Z" stroke="#22222F" stroke-width="1.5" stroke-linecap="round" stroke-linejoin="round"/>
</svg>
