<svg width="20" height="20" viewBox="0 0 20 20" fill="none" xmlns="http://www.w3.org/2000/svg">
<path d="M8.12499 3.95801H6.45833C5.07762 3.95801 3.95833 5.0773 3.95833 6.45801V13.5413C3.95833 14.9221 5.07762 16.0413 6.45833 16.0413H8.54166M8.12499 3.95801V6.04134C8.12499 6.50157 8.49808 6.87467 8.95833 6.87467H11.875M8.12499 3.95801H11.875M11.875 6.87467H16.0417M11.875 6.87467V3.95801M11.875 3.95801H13.5417C14.9224 3.95801 16.0417 5.0773 16.0417 6.45801V6.87467M16.0417 6.87467V8.54134M13.75 11.458C13.75 11.458 13.75 13.7497 11.4583 13.7497C13.75 13.7497 13.75 16.0413 13.75 16.0413C13.75 16.0413 13.75 13.7497 16.0417 13.7497C13.75 13.7497 13.75 11.458 13.75 11.458ZM9.99999 9.79134C9.99999 9.79134 9.99999 10.833 8.95833 10.833C9.99999 10.833 9.99999 11.8747 9.99999 11.8747C9.99999 11.8747 9.99999 10.833 11.0417 10.833C9.99999 10.833 9.99999 9.79134 9.99999 9.79134Z" stroke="#D5D6E2" stroke-width="1.25" stroke-linecap="round" stroke-linejoin="round"/>
</svg>
