<svg width="14" height="14" viewBox="0 0 14 14" fill="none" xmlns="http://www.w3.org/2000/svg">
<path d="M7.21875 5.02734H6.5625C6.5625 5.38975 6.85633 5.68358 7.21875 5.68358V5.02734ZM2.84375 5.02734V4.37109C2.6697 4.37109 2.50278 4.44023 2.37971 4.5633C2.25664 4.68637 2.1875 4.85329 2.1875 5.02734H2.84375ZM11.1562 6.55858C10.7938 6.55858 10.5 6.8524 10.5 7.21483C10.5 7.57725 10.7938 7.87108 11.1562 7.87108V6.55858ZM7.21875 5.68358H12.25V4.37109H7.21875V5.68358ZM7.875 5.02734V2.53095H6.5625V5.02734H7.875ZM4.39397 1.3687C4.36613 2.05878 4.2615 2.8675 3.98927 3.48231C3.72676 4.07518 3.37472 4.37109 2.84375 4.37109V5.68358C4.08417 5.68358 4.80622 4.87908 5.1894 4.01369C5.56281 3.17025 5.67551 2.16288 5.70544 1.4216L4.39397 1.3687ZM12.25 6.55858H11.1562V7.87108H12.25V6.55858ZM11.6 7.12444L10.9576 11.7416L12.2576 11.9224L12.9 7.3053L11.6 7.12444ZM9.76272 12.6789L3.69643 12.0566L3.56252 13.3623L9.62885 13.9845L9.76272 12.6789ZM3.5 11.839V5.02734H2.1875V11.839H3.5ZM3.69643 12.0566C3.58485 12.0452 3.5 11.9512 3.5 11.839H2.1875C2.1875 12.6243 2.78142 13.2822 3.56252 13.3623L3.69643 12.0566ZM12.6875 6.12108C12.6875 6.36275 12.4916 6.55858 12.25 6.55858V7.87108C13.2165 7.87108 14 7.0876 14 6.12108H12.6875ZM10.9576 11.7416C10.8765 12.3247 10.3484 12.7389 9.76272 12.6789L9.62885 13.9845C10.9173 14.1167 12.0791 13.2053 12.2576 11.9224L10.9576 11.7416ZM6.40054 0.145275C5.4558 -0.32712 4.43208 0.42412 4.39397 1.3687L5.70544 1.4216C5.70649 1.39452 5.72303 1.35775 5.7631 1.33214C5.78121 1.32064 5.79547 1.31744 5.80221 1.31686C5.80659 1.3165 5.80869 1.31673 5.81359 1.31921L6.40054 0.145275ZM7.875 2.53095C7.875 1.52067 7.30424 0.59709 6.40054 0.145275L5.81359 1.31921C6.27261 1.5487 6.5625 2.01781 6.5625 2.53095H7.875ZM12.25 5.68358C12.4916 5.68358 12.6875 5.87949 12.6875 6.12108H14C14 5.15459 13.2165 4.37109 12.25 4.37109V5.68358Z" fill="#22222F"/>
<path d="M1.53125 4.80859H1.96875V3.49609H1.53125V4.80859ZM2.1875 5.02734V12.4648H3.5V5.02734H2.1875ZM1.96875 12.6836H1.53125V13.9961H1.96875V12.6836ZM1.3125 12.4648V5.02734H0V12.4648H1.3125ZM1.53125 12.6836C1.41044 12.6836 1.3125 12.5857 1.3125 12.4648H0C0 13.3105 0.685562 13.9961 1.53125 13.9961V12.6836ZM2.1875 12.4648C2.1875 12.5857 2.08956 12.6836 1.96875 12.6836V13.9961C2.81444 13.9961 3.5 13.3105 3.5 12.4648H2.1875ZM1.96875 4.80859C2.08956 4.80859 2.1875 4.90653 2.1875 5.02734H3.5C3.5 4.18166 2.81444 3.49609 1.96875 3.49609V4.80859ZM1.53125 3.49609C0.685562 3.49609 0 4.18166 0 5.02734H1.3125C1.3125 4.90653 1.41044 4.80859 1.53125 4.80859V3.49609Z" fill="#22222F"/>
</svg>
