<svg width="24" height="24" viewBox="0 0 24 24" fill="none" xmlns="http://www.w3.org/2000/svg">
<path d="M3 0.375H21C22.4497 0.375 23.625 1.55025 23.625 3V21C23.625 22.4497 22.4497 23.625 21 23.625H3C1.55025 23.625 0.375 22.4497 0.375 21V3C0.375 1.55025 1.55025 0.375 3 0.375Z" fill="#FCFCFD"/>
<path d="M3 0.375H21C22.4497 0.375 23.625 1.55025 23.625 3V21C23.625 22.4497 22.4497 23.625 21 23.625H3C1.55025 23.625 0.375 22.4497 0.375 21V3C0.375 1.55025 1.55025 0.375 3 0.375Z" stroke="#D5D6E2" stroke-width="0.75"/>
<path d="M11.25 8V11.25M11.25 8V6C11.25 5.66848 11.3817 5.35054 11.6161 5.11612C11.8505 4.8817 12.1685 4.75 12.5 4.75C12.8315 4.75 13.1495 4.8817 13.3839 5.11612C13.6183 5.35054 13.75 5.66848 13.75 6V11.25M11.25 8C11.25 7.66848 11.1183 7.35054 10.8839 7.11612C10.6495 6.8817 10.3315 6.75 10 6.75C9.66848 6.75 9.35054 6.8817 9.11612 7.11612C8.88169 7.35054 8.75 7.66848 8.75 8V13.25L7.146 11.327C6.535 10.594 5.418 10.573 4.755 11.261M4.755 11.261L6.733 16.131C7.10729 17.0528 7.74809 17.8421 8.57342 18.3977C9.39875 18.9533 10.3711 19.2501 11.366 19.25H15.25C17.46 19.25 18.75 17.46 18.75 15.25V9C18.75 8.66848 18.6183 8.35054 18.3839 8.11612C18.1495 7.8817 17.8315 7.75 17.5 7.75C17.1685 7.75 16.8505 7.8817 16.6161 8.11612C16.3817 8.35054 16.25 8.66848 16.25 9M4.755 11.261C4.75 11.267 4.752 11.255 4.755 11.261ZM13.75 9V7C13.75 6.66848 13.8817 6.35054 14.1161 6.11612C14.3505 5.8817 14.6685 5.75 15 5.75C15.3315 5.75 15.6495 5.8817 15.8839 6.11612C16.1183 6.35054 16.25 6.66848 16.25 7V11.25" stroke="#22222F" stroke-width="1.5" stroke-linecap="round" stroke-linejoin="round"/>
</svg>
