<svg width="16" height="16" viewBox="0 0 16 16" fill="none" xmlns="http://www.w3.org/2000/svg">
<g clip-path="url(#clip0_6886_2338)">
<path d="M0.96272 0.690271L9.816 0.0363508C10.9035 -0.0569292 11.1829 0.00595081 11.8667 0.503071L14.6928 2.49395C15.1589 2.83635 15.3141 2.92963 15.3141 3.30243V14.2213C15.3141 14.9056 15.0656 15.3104 14.1957 15.3722L3.91472 15.9949C3.26192 16.0258 2.95104 15.9325 2.60912 15.4968L0.528 12.7906C0.15472 12.2925 0 11.9197 0 11.4839V1.77827C0 1.21875 0.24848 0.752191 0.96272 0.690271Z" fill="white"/>
<path fill-rule="evenodd" clip-rule="evenodd" d="M10.2556 0.0365104L1.00583 0.690423C0.259607 0.752182 0 1.2189 0 1.77825V11.4837C0 11.9194 0.161648 12.2922 0.551643 12.7904L2.72595 15.4965C3.08319 15.9322 3.40799 16.0256 4.09002 15.9946L14.8315 15.3722C15.7397 15.3102 16 14.9055 16 14.2213V3.30255C16 2.94896 15.8541 2.84704 15.4245 2.54528L12.3981 0.503065C11.6838 0.00595074 11.3918 -0.0569285 10.2556 0.0363504V0.0365104ZM4.33291 3.12383C3.4558 3.18031 3.25687 3.19311 2.75872 2.80544L1.49228 1.84129C1.36356 1.71649 1.42826 1.56081 1.75255 1.52977L10.6445 0.90786C11.3913 0.845461 11.7801 1.09458 12.0721 1.31218L13.5972 2.36976C13.6624 2.40128 13.8245 2.58736 13.6294 2.58736L4.44658 3.11647L4.33291 3.12383ZM3.31036 14.128V4.85885C3.31036 4.45406 3.44025 4.26734 3.82907 4.23598L14.3762 3.64495C14.7339 3.61407 14.8955 3.83166 14.8955 4.23582V13.4432C14.8955 13.848 14.8303 14.1904 14.2464 14.2213L4.15354 14.7813C3.56963 14.8122 3.31053 14.6261 3.31053 14.128H3.31036ZM13.2734 5.35581C13.3381 5.6358 13.2734 5.9158 12.9808 5.9478L12.4944 6.04012V12.8837C12.072 13.1013 11.6831 13.2256 11.3582 13.2256C10.8388 13.2256 10.7091 13.07 10.3201 12.6037L7.13894 7.81338V12.448L8.14527 12.6661C8.14527 12.6661 8.14527 13.2261 7.33335 13.2261L5.09501 13.3504C5.02982 13.2256 5.09501 12.9148 5.32186 12.8528L5.90643 12.6976V6.56971L5.09518 6.50683C5.02999 6.22684 5.19213 5.82252 5.64682 5.79116L8.04848 5.63644L11.3583 10.4887V6.19596L10.5147 6.10316C10.4495 5.76028 10.7091 5.51117 11.0334 5.48077L13.2734 5.35581Z" fill="black"/>
</g>
<defs>
<clipPath id="clip0_6886_2338">
<rect width="16" height="16" fill="white"/>
</clipPath>
</defs>
</svg>
