<svg width="20" height="20" viewBox="0 0 20 20" fill="none" xmlns="http://www.w3.org/2000/svg">
<path d="M4.68432 12.4686L5.60165 12.6123C6.27883 12.7183 6.76243 13.3385 6.71256 14.0373L6.64498 14.9843C6.62529 15.2603 6.77228 15.52 7.01572 15.6402L7.6942 15.9744C7.93764 16.0946 8.22833 16.0496 8.42718 15.8623L9.10893 15.218C9.61159 14.7428 10.3872 14.7428 10.8904 15.218L11.5722 15.8623C11.771 16.0503 12.0611 16.0946 12.3052 15.9744L12.9849 15.6395C13.2278 15.52 13.3741 15.2609 13.3544 14.9858L13.2868 14.0373C13.2369 13.3385 13.7205 12.7183 14.3977 12.6123L15.315 12.4686C15.5821 12.427 15.7973 12.2223 15.8577 11.9524L16.025 11.202C16.0854 10.9322 15.9784 10.6523 15.7553 10.4965L14.9896 9.96018C14.4246 9.56418 14.252 8.79093 14.5933 8.18343L15.0558 7.3605C15.1903 7.12087 15.1681 6.82083 14.9994 6.60469L14.5303 6.00259C14.3616 5.78645 14.0808 5.69718 13.8223 5.7784L12.9351 6.05629C12.2796 6.26168 11.5808 5.91734 11.3288 5.26558L10.9888 4.38424C10.8891 4.12649 10.6457 3.95734 10.3747 3.95801L9.62268 3.96003C9.35168 3.96069 9.10893 4.13119 9.01051 4.38962L8.67909 5.26088C8.42976 5.91668 7.72767 6.2637 7.07018 6.05696L6.14628 5.76699C5.88709 5.6851 5.60493 5.77504 5.4363 5.99253L4.97041 6.59529C4.80178 6.81344 4.78143 7.11416 4.91858 7.35378L5.39168 8.17873C5.74011 8.78684 5.5695 9.56751 5.00125 9.96559L4.24468 10.4958C4.02158 10.6523 3.91463 10.9322 3.97499 11.2013L4.14232 11.9518C4.20203 12.2223 4.41725 12.427 4.68432 12.4686Z" stroke="#D5D6E2" stroke-width="1.25" stroke-linecap="round" stroke-linejoin="round"/>
<path d="M11.3259 8.67409C12.058 9.40625 12.058 10.5938 11.3259 11.3259C10.5938 12.058 9.40625 12.058 8.67409 11.3259C7.94197 10.5938 7.94197 9.40625 8.67409 8.67409C9.40625 7.94197 10.5938 7.94197 11.3259 8.67409Z" stroke="#D5D6E2" stroke-width="1.25" stroke-linecap="round" stroke-linejoin="round"/>
</svg>
