<svg width="16" height="16" viewBox="0 0 16 16" fill="none" xmlns="http://www.w3.org/2000/svg">
<g clip-path="url(#clip0_6857_2697)">
<path d="M3.42681 10.079C3.42681 10.9987 2.68351 11.742 1.76382 11.742C0.844137 11.742 0.10083 10.9987 0.10083 10.079C0.10083 9.15932 0.844137 8.41602 1.76382 8.41602H3.42681V10.079ZM4.25831 10.079C4.25831 9.15932 5.00162 8.41602 5.9213 8.41602C6.84099 8.41602 7.5843 9.15932 7.5843 10.079V14.2365C7.5843 15.1562 6.84099 15.8995 5.9213 15.8995C5.00162 15.8995 4.25831 15.1562 4.25831 14.2365V10.079Z" fill="#E01E5A"/>
<path d="M5.92096 3.40118C5.00128 3.40118 4.25797 2.65787 4.25797 1.73819C4.25797 0.818502 5.00128 0.0751953 5.92096 0.0751953C6.84065 0.0751953 7.58395 0.818502 7.58395 1.73819V3.40118H5.92096ZM5.92096 4.24527C6.84065 4.24527 7.58395 4.98858 7.58395 5.90827C7.58395 6.82795 6.84065 7.57126 5.92096 7.57126H1.75088C0.831198 7.57126 0.0878906 6.82795 0.0878906 5.90827C0.0878906 4.98858 0.831198 4.24527 1.75088 4.24527H5.92096Z" fill="#36C5F0"/>
<path d="M12.5859 5.90827C12.5859 4.98858 13.3293 4.24527 14.2489 4.24527C15.1686 4.24527 15.9119 4.98858 15.9119 5.90827C15.9119 6.82795 15.1686 7.57126 14.2489 7.57126H12.5859V5.90827ZM11.7545 5.90827C11.7545 6.82795 11.0111 7.57126 10.0915 7.57126C9.17177 7.57126 8.42847 6.82795 8.42847 5.90827V1.73819C8.42847 0.818502 9.17177 0.0751953 10.0915 0.0751953C11.0111 0.0751953 11.7545 0.818502 11.7545 1.73819V5.90827Z" fill="#2EB67D"/>
<path d="M10.0915 12.5735C11.0111 12.5735 11.7545 13.3168 11.7545 14.2365C11.7545 15.1562 11.0111 15.8995 10.0915 15.8995C9.17177 15.8995 8.42847 15.1562 8.42847 14.2365V12.5735H10.0915ZM10.0915 11.742C9.17177 11.742 8.42847 10.9987 8.42847 10.079C8.42847 9.15932 9.17177 8.41602 10.0915 8.41602H14.2615C15.1812 8.41602 15.9245 9.15932 15.9245 10.079C15.9245 10.9987 15.1812 11.742 14.2615 11.742H10.0915Z" fill="#ECB22E"/>
</g>
<defs>
<clipPath id="clip0_6857_2697">
<rect width="16" height="16" fill="white"/>
</clipPath>
</defs>
</svg>
