<svg width="20" height="20" viewBox="0 0 20 20" fill="none" xmlns="http://www.w3.org/2000/svg">
<path d="M8.12499 5.62467H5.62499C5.18297 5.62467 4.75904 5.80027 4.44648 6.11283C4.13392 6.42539 3.95833 6.84931 3.95833 7.29134V14.3747C3.95833 14.8167 4.13392 15.2406 4.44648 15.5532C4.75904 15.8657 5.18297 16.0413 5.62499 16.0413H11.0417C11.4837 16.0413 11.9076 15.8657 12.2202 15.5532C12.5327 15.2406 12.7083 14.8167 12.7083 14.3747V10.208M8.12499 5.62467L12.7083 10.208M8.12499 5.62467V8.54134C8.12499 8.98337 8.30059 9.40729 8.61315 9.71985C8.92571 10.0324 9.34963 10.208 9.79166 10.208H12.7083M9.79166 3.95801H11.4583L16.0417 8.54134V12.708C16.0417 13.15 15.8661 13.574 15.5535 13.8865C15.2409 14.1991 14.817 14.3747 14.375 14.3747H12.9167" stroke="#D5D6E2" stroke-width="1.25" stroke-linecap="round" stroke-linejoin="round"/>
</svg>
