<svg width="20" height="20" viewBox="0 0 20 20" fill="none" xmlns="http://www.w3.org/2000/svg">
<path d="M10.6252 3.95898H14.3752C14.8172 3.95898 15.2411 4.13458 15.5537 4.44714C15.8662 4.7597 16.0418 5.18362 16.0418 5.62565V14.3757C16.0418 14.8177 15.8662 15.2416 15.5537 15.5542C15.2411 15.8667 14.8172 16.0423 14.3752 16.0423H10.6252M3.9585 14.3757V5.62565C3.9585 5.18362 4.13409 4.7597 4.44665 4.44714C4.75921 4.13458 5.18314 3.95898 5.62516 3.95898H7.7085V16.0423H5.62516C5.18314 16.0423 4.75921 15.8667 4.44665 15.5542C4.13409 15.2416 3.9585 14.8177 3.9585 14.3757Z" stroke="#8588AB" stroke-width="1.5" stroke-linecap="round" stroke-linejoin="round"/>
</svg>
